# xmcd
#
# Track frame offsets:
#	150
#	17288
#	38588
#	60193
#
# Disc length: 957 seconds
#
# Revision: 1
# Processed by: cddbd v1.5.2PL0 Copyright (c) Steve Scherf et al.
# Submitted via: audiograbber 1.83.01
#
DISCID=1b03bb04
DTITLE=Phil Carmen - Feelin´ Alright
DYEAR=1993
DGENRE=Country
TTITLE0=Feelin´Alright
TTITLE1=Prisioner Of Her Soul
TTITLE2=Feelin´Alright (Album Version)
TTITLE3=Feelin´Alright (Instumental Version)
EXTD=
EXTT0=Titelmusik aus dem BR-Tatort "Himmel und Erde"\nSendung vom 28.11.1993
EXTT1=
EXTT2=
EXTT3=
PLAYORDER=
